PLOT

A young girl gets hooked on a website called "Death Tube," which broadcasts actual
murders in real time. At first she didn't believe it was real, until she is brought
into the site itself. The killing game is about to begin.
 
http://www.imdb.com/title/tt1686330/


Encoded By .......: BigPerm1828
Runtime ..........: 1h 56mn
File Size ........: 1.08 GB
Resolution .......: 704 x 396
IMDb URL .........: http://www.imdb.com/title/tt1686330/
Genre ............: Horror
Language .........: Japanese
Subtitles ........: Hardcoded English
Video
ID : 0
Format : MPEG-4 Visual
Format profile : Advanced Simple@L5
Format settings, BVOP : Yes
Format settings, QPel : No
Format settings, GMC : No warppoints
Format settings, Matrix : Default (H.263)
Codec ID : XVID
Codec ID/Hint : XviD
Duration : 1h 56mn
Bit rate : 43.1 Kbps
Width : 704 pixels
Height : 396 pixels
Display aspect ratio : 16:9
Frame rate : 29.970 fps
Color space : YUV
Chroma subsampling : 4:2:0
Bit depth : 8 bits
Scan type : Progressive
Compression mode : Lossy
Bits/(Pixel*Frame) : 0.005
Stream size : 35.8 MiB (3%)
Writing library : XviD 1.2.1 (UTC 2008-12-04)

Audio
ID : 1
Format : AC-3
Format/Info : Audio Coding 3
Codec ID : 2000
Duration : 1h 56mn
Bit rate mode : Constant
Bit rate : 224 Kbps
Channel(s) : 2 channels
Sampling rate : 48.0 KHz
Bit depth : 16 bits
Compression mode : Lossy
Stream size : 186 MiB (17%)
Alignment : Aligned on interleaves